<?xml version="1.0" encoding="UTF-8"?>
<!DOCTYPE svg PUBLIC "-//W3C//DTD SVG 1.1//EN" "http://www.w3.org/Graphics/SVG/1.1/DTD/svg11.dtd">
<!-- Creator: CorelDRAW -->
<svg xmlns="http://www.w3.org/2000/svg" xml:space="preserve" width="214.575mm" height="71.6928mm" version="1.1" style="shape-rendering:geometricPrecision; text-rendering:geometricPrecision; image-rendering:optimizeQuality; fill-rule:evenodd; clip-rule:evenodd"
viewBox="0 0 21457.5 7169.28"
 xmlns:xlink="http://www.w3.org/1999/xlink"
 xmlns:xodm="http://www.corel.com/coreldraw/odm/2003">
 <defs>
  <style type="text/css">
   <![CDATA[
    .str2 {stroke:#FEFEFE;stroke-width:75;stroke-miterlimit:22.9256}
    .str1 {stroke:#FEFEFE;stroke-width:7.62;stroke-miterlimit:22.9256}
    .str0 {stroke:#FEFEFE;stroke-width:75;stroke-linecap:round;stroke-linejoin:round;stroke-miterlimit:22.9256}
    .fil0 {fill:none}
    .fil3 {fill:none;fill-rule:nonzero}
    .fil1 {fill:#FEFEFE}
    .fil2 {fill:#FEFEFE;fill-rule:nonzero}
   ]]>
  </style>
 </defs>
 <g id="Camada_x0020_1">
  <metadata id="CorelCorpID_0Corel-Layer"/>
  <path class="fil0 str0" d="M2834.36 927.83c-62.8,-205 -63.2,-444.8 53.09,-649.48 71.9,-126.5 182.09,-180.22 321.93,-213.22 697.95,-164.66 2051.07,434.36 1611.67,938.71 -296.43,-392.93 -701.36,-544.74 -1175.4,-543.04 -165.22,0.59 -445.26,5.34 -584.89,96.82 -542.82,355.79 -15.74,1092.27 580.59,1380.15"/>
  <path class="fil0 str0" d="M2401.66 1555.74c430.57,9.71 846.72,132.01 1239.68,382.02 -1410.8,-1233.56 -2864.7,-482.56 -2662.08,-22.84 104.64,237.42 345.31,386.07 518.12,511.76 -560.46,-639.9 214.14,-886.51 904.27,-870.94l0.01 0z"/>
  <path class="fil0 str0" d="M3641.34 1937.77c-927.5,-315.89 -1433.41,92.96 -1854.62,785.37 -418.1,687.3 -326.82,620.26 -1193.43,695.59"/>
  <path class="fil0 str0" d="M366.53 3431.77c200.34,173.76 434.3,280.33 689.36,344.68"/>
  <path class="fil0 str0" d="M1338.9 3461.15c-174.63,693.51 -629.17,1178.85 -1301.39,1502.34"/>
  <path class="fil0 str0" d="M425.07 4973.06c418.14,19.74 835.2,38.05 1043.01,-220.09 138.25,64.47 -139.03,413.25 -428.01,770.02 236.41,48.48 548.48,-62.72 918.48,-296.28"/>
  <path class="fil0 str0" d="M2436.63 3616.98c-218.54,337.76 -501.67,601 -730.15,923.87 1156.37,31.24 2312.29,-893.85 2264.97,-1634.16"/>
  <path class="fil0 str0" d="M4062.5 2876.1c240.25,185.57 530.88,432.23 524.22,669.65"/>
  <path class="fil0 str0" d="M4664.5 2405.98c352.63,301.23 360.68,738.42 74.41,1048.44"/>
  <path class="fil0 str0" d="M4898.26 2686.07c348.59,219.05 632.6,939.34 584.39,1242.86"/>
  <path class="fil0 str0" d="M5084.26 2280.25c976.07,306.45 1045.34,1274.9 520.5,1785.39"/>
  <path class="fil0 str0" d="M6155.04 3656.97c90,136.58 761.67,1328.58 959.89,927.15 159.39,-322.81 -237.91,-1055.91 -710.25,-1384.82"/>
  <path class="fil0 str0" d="M3757.56 1820.97c488.28,-315.07 1572.73,-100.03 2169.43,285.23 637.41,411.55 855.39,897.6 1633.89,1088.6 -52.46,36.23 -291.28,70.04 -447.81,-26.84"/>
  <path class="fil0 str0" d="M7128.95 3205.9c382.79,401.58 396.21,890.02 217.82,726.07"/>
  <path class="fil0 str0" d="M7052.69 4578.11c128.85,170.03 477.93,388.07 556.65,485.1 114.59,141.29 -382.13,29.57 -432.24,9.78"/>
  <path class="fil0 str0" d="M7109.46 5132.92c-53.09,-18.33 -106.18,-77.56 -161.61,-104.85 -71.93,-35.4 -131.08,-7.01 -123.01,77.6 7.76,81.28 66.29,195.48 106.81,294.39 113.85,277.88 -103.01,266.43 -202.33,74.43 -65.88,-127.35 -120.97,-323.92 -196.91,-480.21 -31.38,-64.58 -80.21,-114.8 -81.52,-188.27 -2.09,-116.98 71.13,-287.13 157.06,-466.26"/>
  <path class="fil0 str0" d="M2436.44 4622.19c-619.48,-573.82 -759.98,445.63 326.68,627.01"/>
  <path class="fil0 str0" d="M2599.73 4618.67c94.56,280.47 199.81,494.83 300.24,645.82m391.92 -156.11c-57.96,-223.16 -188.89,-530.84 -421.78,-917.8"/>
  <path class="fil0 str0" d="M4128.43 3412.86c356.11,-25.97 747.95,464.34 1048.85,574.76"/>
  <path class="fil0 str0" d="M6679.52 3952.34c-127.67,-180.37 -479.02,35.73 -776.13,126.65"/>
  <path class="fil0 str0" d="M4126.76 3793.18c368.28,178.41 537.33,224 739.5,267.17"/>
  <path class="fil1" d="M4187.09 3822.07c-208.54,-1.56 -102.18,226.97 29.14,301.58 119.53,67.96 198.98,-93.24 193.46,-202.65 -65.45,-26.84 -138.57,-59.2 -222.6,-98.93z"/>
  <path class="fil0 str0" d="M6450.17 4291.52c-235.8,6.62 -536.38,-16.28 -895.9,-63.79"/>
  <path class="fil1" d="M5686.52 4244.4l-0.01 0.01c-75.33,63.77 -4.6,167.1 78.93,204.79 57.69,26 93.27,7.2 147.63,-20.48 66.19,-33.69 103.98,-80.47 28.99,-157.42 -81.11,-7.22 -166.32,-16.22 -255.54,-26.9z"/>
  <path class="fil0 str0" d="M4757.85 4953.48c-172.77,-77.61 -210.45,-147.97 -174.1,-164.01 62.15,-27.42 138.57,70.3 323.96,128.68 414.92,130.66 652.89,-36.86 728.82,42 58.66,60.88 -87.41,99.35 -125.16,109.45 -70.52,18.87 -169.35,33.07 -300.82,32.71"/>
  <path class="fil0 str0" d="M4868.87 5011.49c53.19,23.9 106.38,42.31 159.56,56.74"/>
  <path class="fil0 str0" d="M6505.14 4945.53c97.97,798.4 -510.04,1224.56 -1328.39,1539.81 -888.35,-207.92 -1129.04,-304.82 -1766.2,-711.48"/>
  <path class="fil0 str0" d="M3153.15 7131.76c-131.33,-465.24 -30.56,-1106.28 934.02,-2401.74 -363.38,141.57 -705.76,228.25 -977.72,337.64 -1203.82,484.2 -1563.38,682.83 -2273.13,1494 344.7,190.04 689.39,380.07 1034.08,570.11"/>
  <path class="fil1" d="M3005.42 7131.76c-251,-583.12 149.36,-1163.88 534.77,-2002 -208.66,99.11 -418.41,158.48 -579.65,239.7 -1115,561.61 -1229.27,678.1 -1844.95,1346.16l-279.28 -153.97c709.75,-811.17 1069.32,-1009.8 2273.13,-1494 271.96,-109.39 614.34,-196.07 977.72,-337.64 -964.58,1295.46 -1065.34,1936.5 -934.02,2401.74l-147.73 0 0.01 0.01z"/>
  <path class="fil1" d="M2566.89 6238.93c-32.61,-60.7 -3.36,-184.57 31.51,-296.01 -105.76,-24.51 -191.87,-52.46 -206.8,-71.15 51.28,-16.17 141.59,-17.15 234.04,-11.59 11.2,-32.9 21.44,-62.34 28.71,-85.6 42.46,-135.95 97.75,-193.6 151.39,-172.07 58.7,23.57 37.53,143.88 -12.41,273.73 19.84,2.55 38.42,5.15 55.15,7.7 154.29,23.5 225.77,54.87 211.11,85.77 -17.37,36.63 -159.19,28.14 -307.95,3.57 -63.19,133.71 -143.64,254.47 -184.75,265.65z"/>
  <path class="fil1" d="M1707.9 6322.16c17.75,-7.15 80.97,-8.37 156.72,-4.07 1.94,-8.23 4.19,-16.27 6.76,-24.05 26.64,-80.46 111.43,-77.01 133.28,17.15 1.48,6.37 2.57,13.29 3.3,20.59 47.33,6.47 92,14.84 126.93,25.01 104.09,30.34 86.52,93.52 -13.68,89.13 -33.91,-1.49 -75.68,-7.29 -119.82,-16.17 -12.37,63.75 -38.63,129.09 -71.35,161.31 -51.32,-48.55 -74.47,-125.58 -73.98,-199.59 -62.69,-20.66 -117.78,-45.03 -148.16,-69.3l0 -0.01z"/>
  <path class="fil0 str0" d="M6668.06 5349.69c55.7,219.58 97.35,404.04 126.51,555.11m44.11 274.59c8.67,74.89 11.46,133.15 8.98,175.42 -6.56,111.6 -49.96,111.87 -119.29,12.89 -65.88,-94.05 -155.21,-277.75 -258.66,-540.72"/>
  <path class="fil0 str0" d="M6260.32 6334.26c-46.33,83.94 -174.02,154.35 -327.36,220.47"/>
  <path class="fil0 str0" d="M6694.7 5456.36c852.98,20.76 1563.17,92.84 2400.13,233.33 334.7,56.22 941.19,169.39 546.99,364.62 -356.89,176.76 -1213.62,437.54 -1708.17,1077.45"/>
  <path class="fil0 str0" d="M3285.58 6278.39c-72.43,325.6 -68.03,572.28 27.27,853.37"/>
  <path class="fil0 str0" d="M4555.1 6326.12c-7.3,585.01 -49.15,710.05 90.92,805.63"/>
  <path class="fil1" d="M7426.26 7131.76c97.92,0 195.84,0 293.75,0 832.34,-894.69 2206.95,-1209.47 1813.67,-1329.34 -359.17,-109.46 -533.13,-48.04 -899.53,-86.76 -602.22,-63.64 -1244.79,-129.32 -1907.46,-125.92 14.72,67.12 29.45,134.23 44.17,201.35 769.59,14.3 1495.33,112.16 2240.32,150.58 298.4,15.39 -1016.28,471.7 -1584.93,1190.09l0.01 0z"/>
  <path class="fil1" d="M2110.2 4588c28.87,23.26 20.15,47.56 -15.76,63.04 -60.55,26.04 -46.85,-113.57 15.76,-63.04z"/>
  <path class="fil2 str1" d="M9654.79 3115.23l0 387.37c0,21.17 -3.7,45.51 -11.11,73.03 -7.41,27.52 -16.41,50.8 -26.99,69.85l-927.15 1654.26c-10.58,16.94 -26.46,32.28 -47.63,46.04 -21.16,13.76 -42.33,20.64 -63.5,20.64l-571.53 0c-23.28,0 -38.1,-6.88 -44.45,-20.64 -6.35,-13.76 -4.23,-29.1 6.35,-46.04l923.97 -1603.45c10.59,-19.06 12.17,-34.93 4.76,-47.63 -7.4,-12.7 -21.69,-19.05 -42.86,-19.05l-847.77 0c-23.28,0 -41.8,-7.41 -55.56,-22.23 -13.76,-14.82 -20.64,-33.34 -20.64,-54.51l0 -437.11c0,-21.17 6.88,-39.69 20.64,-54.51 13.76,-14.81 32.28,-22.22 55.56,-22.22l1571.71 0c21.16,0 39.16,7.41 53.97,22.22 14.82,14.82 22.23,32.81 22.23,53.98zm301.64 2174.99l0 -2171.81c0,-21.17 7.41,-39.16 22.23,-53.98 14.81,-14.82 32.81,-22.23 53.97,-22.23l866.82 0c332.33,0 604.34,97.37 816.02,292.12 114.3,105.84 201.09,231.78 260.36,377.84 59.27,146.06 88.91,310.11 88.91,492.15 0,182.04 -29.64,346.62 -88.91,493.74 -59.27,147.11 -146.06,273.59 -260.36,379.43 -105.84,95.26 -227.03,167.23 -363.56,215.91 -136.53,48.69 -287.35,73.03 -452.46,73.03l-866.82 0c-21.16,0 -39.16,-7.41 -53.97,-22.23 -14.82,-14.81 -22.23,-32.81 -22.23,-53.97zm704.88 -508.03l238.14 0c59.27,0 120.66,-7.41 184.16,-22.23 63.5,-14.81 120.66,-42.86 171.46,-84.14 50.8,-41.27 92.61,-99.49 125.42,-174.63 32.81,-75.15 49.21,-173.05 49.21,-293.7 0,-120.66 -16.4,-218.56 -49.21,-293.71 -32.81,-75.14 -75.15,-133.35 -127.01,-174.63 -51.86,-41.28 -109.01,-69.32 -171.46,-84.14 -62.44,-14.82 -123.3,-22.23 -182.57,-22.23l-238.14 0c-21.16,0 -39.16,7.41 -53.97,22.23 -14.82,14.82 -22.23,32.81 -22.23,53.98l0 997c0,21.16 7.41,39.16 22.23,53.97 14.81,14.82 32.81,22.23 53.97,22.23zm1971.79 -212.74c114.3,74.09 227.55,132.3 339.74,174.64 112.19,42.33 216.97,63.5 314.34,63.5 93.14,0 164.05,-13.23 212.74,-39.69 48.68,-26.46 73.02,-66.15 73.02,-119.07 0,-27.51 -10.58,-49.21 -31.75,-65.09 -21.17,-15.87 -49.21,-29.1 -84.14,-39.69 -34.93,-10.58 -75.67,-19.05 -122.24,-25.4 -46.57,-6.35 -94.2,-14.82 -142.88,-25.4 -46.57,-8.47 -101.08,-18.52 -163.53,-30.16 -62.44,-11.65 -126.47,-28.58 -192.09,-50.81 -65.62,-22.22 -130.71,-50.27 -195.28,-84.14 -64.56,-33.87 -122.24,-77.26 -173.04,-130.18 -50.8,-52.92 -91.55,-115.89 -122.25,-188.92 -30.69,-73.03 -46.03,-159.29 -46.03,-258.78 0,-146.05 28.57,-266.71 85.72,-361.96 57.16,-95.26 129.66,-170.93 217.5,-227.03 87.85,-56.09 185.75,-95.25 293.71,-117.48 107.95,-22.23 212.73,-33.34 314.34,-33.34 177.8,0 337.09,25.93 477.86,77.79 140.76,51.86 275.71,127.54 404.83,227.03 16.93,14.81 26.46,32.81 28.58,53.97 2.11,21.17 -3.18,40.22 -15.88,57.16l-247.66 352.44c-12.7,16.93 -29.64,27.52 -50.8,31.75 -21.17,4.24 -40.22,0 -57.16,-12.7 -107.95,-67.74 -208.5,-115.89 -301.64,-144.47 -93.14,-28.58 -178.86,-42.86 -257.18,-42.86 -23.29,0 -50.28,0.53 -80.97,1.58 -30.69,1.06 -59.8,5.3 -87.32,12.7 -27.52,7.41 -50.27,19.58 -68.26,36.52 -18,16.93 -26.99,40.22 -26.99,69.85 0,29.64 22.22,56.1 66.68,79.38 44.45,23.29 95.25,43.4 152.4,60.33 57.16,16.93 112.19,30.16 165.11,39.69 52.92,9.52 86.79,15.35 101.61,17.46 76.2,14.82 159.81,36.52 250.83,65.09 91.03,28.58 176.23,70.92 255.6,127.01 79.38,56.09 146.06,129.12 200.04,219.09 53.98,89.96 80.97,202.68 80.97,338.15 0,127.01 -22.23,236.55 -66.68,328.63 -44.45,92.08 -106.37,167.75 -185.75,227.02 -79.38,59.27 -174.63,103.2 -285.76,131.77 -111.13,28.58 -234.44,42.87 -369.91,42.87 -110.07,0 -212.74,-9 -307.99,-26.99 -95.26,-17.99 -184.16,-42.87 -266.71,-74.62 -82.56,-31.75 -159.29,-69.32 -230.2,-112.72 -70.91,-43.39 -136.01,-89.43 -195.28,-138.12 -16.93,-12.7 -26.45,-30.16 -28.57,-52.39 -2.12,-22.22 3.17,-41.8 15.87,-58.74l244.49 -352.44c12.7,-16.93 29.64,-27.52 50.8,-31.75 21.17,-4.23 40.22,-1.06 57.16,9.52zm3965.77 -1451.04l0 2171.81c0,21.16 -7.41,39.16 -22.22,53.97 -14.82,14.82 -32.81,22.23 -53.98,22.23l-476.27 0c-23.29,0 -41.81,-7.41 -55.57,-22.23 -13.76,-14.81 -20.64,-32.81 -20.64,-53.97l0 -679.49c0,-21.17 -7.41,-39.16 -22.22,-53.98 -14.82,-14.81 -32.81,-22.22 -53.45,-22.22l-651.97 0c-22.75,0 -41.28,7.41 -55.04,22.22 -13.75,14.82 -20.63,32.81 -20.63,53.98l0 679.49c0,21.16 -7.41,39.16 -22.23,53.97 -14.82,14.82 -33.34,22.23 -54.51,22.23l-475.21 0c-23.29,0 -42.34,-7.41 -56.1,-22.23 -13.76,-14.81 -20.64,-32.81 -20.64,-53.97l0 -2171.81c0,-21.17 6.88,-39.16 20.64,-53.98 13.76,-14.82 32.81,-22.23 56.1,-22.23l475.21 0c21.17,0 39.69,7.41 54.51,22.23 14.82,14.82 22.23,32.81 22.23,53.98l0 749.33c0,21.17 6.88,39.16 20.63,53.98 13.76,14.82 32.29,22.23 55.04,22.23l651.97 0c20.64,0 38.63,-7.41 53.45,-22.23 14.81,-14.82 22.22,-32.81 22.22,-53.98l0 -749.33c0,-21.17 6.88,-39.16 20.64,-53.98 13.76,-14.82 32.28,-22.23 55.57,-22.23l476.27 0c21.17,0 39.16,7.41 53.98,22.23 14.81,14.82 22.22,32.81 22.22,53.98zm469.93 3.17c0,-21.17 7.41,-39.16 22.22,-53.98 14.82,-14.81 32.29,-22.22 53.45,-22.22l477.34 0c21.16,0 38.63,7.41 53.44,22.22 14.82,14.82 22.23,32.81 22.23,53.98l0 1285.94c0,82.56 13.23,150.82 39.69,204.8 26.99,53.98 59.8,96.31 98.96,127.01 39.16,30.69 81.49,52.39 125.95,65.09 44.45,12.7 85.2,19.05 121.18,19.05 35.99,0 76.74,-6.35 121.19,-19.05 44.45,-12.7 86.26,-34.4 124.36,-65.09 38.1,-30.7 70.38,-73.03 97.37,-127.01 26.46,-53.98 39.69,-122.24 39.69,-204.8l0 -1285.94c0,-21.17 7.41,-39.16 22.23,-53.98 14.81,-14.81 32.28,-22.22 53.44,-22.22l477.34 0c21.16,0 38.63,7.41 53.44,22.22 14.82,14.82 22.23,32.81 22.23,53.98l0 1285.94c0,150.29 -23.81,286.82 -71.44,409.6 -47.63,122.77 -115.36,227.55 -204.27,314.34 -88.9,86.79 -195.8,153.99 -320.16,201.62 -124.89,47.63 -263.01,71.44 -415.42,71.44 -152.41,0 -290.52,-23.81 -415.41,-71.44 -124.36,-47.63 -231.26,-114.83 -320.17,-201.62 -88.9,-86.79 -157.17,-191.57 -205.85,-314.34 -48.69,-122.78 -73.03,-259.31 -73.03,-409.6l0 -1285.94zm4092.78 1047.8c33.87,19.06 67.74,42.34 101.61,69.86 33.87,27.52 65.09,61.38 93.67,101.6 28.57,40.22 51.86,86.79 69.85,139.71 17.99,52.92 26.99,113.25 26.99,180.98 0,137.59 -21.7,251.37 -65.09,341.33 -43.4,89.97 -102.14,161.94 -176.22,215.92 -74.09,53.97 -159.29,92.07 -255.6,114.3 -96.32,22.23 -197.39,33.34 -303.23,33.34l-1006.53 0c-21.17,0 -39.16,-7.41 -53.98,-22.23 -14.81,-14.81 -22.22,-32.81 -22.22,-53.97l0 -2171.81c0,-21.17 7.41,-39.16 22.22,-53.98 14.82,-14.82 32.81,-22.23 53.98,-22.23l958.9 0c101.61,0 198.98,11.12 292.12,33.34 93.13,22.23 175.16,58.74 246.07,109.55 70.91,50.8 128.07,116.95 171.46,198.44 43.39,81.5 65.09,181.52 65.09,300.06 0,95.25 -23.81,177.8 -71.44,247.66 -47.63,69.85 -98.96,124.89 -154,165.11 -38.1,27.51 -35.98,51.86 6.35,73.02zm-885.87 -244.48l295.29 0c42.34,0 76.21,-16.41 101.61,-49.22 25.4,-32.81 38.1,-69.32 38.1,-109.54 0,-38.1 -15.35,-70.91 -46.04,-98.43 -30.69,-27.52 -59.8,-41.28 -87.32,-41.28l-301.64 0c-21.16,0 -39.16,7.41 -53.97,22.23 -14.82,14.82 -22.23,32.81 -22.23,53.98l0 146.05c0,21.17 7.41,39.16 22.23,53.98 14.81,14.82 32.81,22.23 53.97,22.23zm333.4 523.9l-333.4 0c-21.16,0 -39.16,7.41 -53.97,22.22 -14.82,14.82 -22.23,32.81 -22.23,53.98l0 180.99c0,21.16 7.41,39.16 22.23,53.97 14.81,14.82 32.81,22.23 53.97,22.23l355.62 0c38.1,0 74.09,-15.88 107.96,-47.63 33.87,-31.75 50.8,-68.79 50.8,-111.13 0,-38.1 -16.4,-76.73 -49.21,-115.89 -32.81,-39.16 -76.74,-58.74 -131.77,-58.74z"/>
  <path class="fil3 str2" d="M9512.33 2971.13l0 387.37c0,21.17 -3.7,45.51 -11.11,73.03 -7.41,27.52 -16.41,50.8 -26.99,69.85l-927.15 1654.26c-10.58,16.94 -26.46,32.28 -47.63,46.04 -21.16,13.76 -42.33,20.64 -63.5,20.64l-571.53 0c-23.28,0 -38.1,-6.88 -44.45,-20.64 -6.35,-13.76 -4.23,-29.1 6.35,-46.04l923.97 -1603.45c10.59,-19.06 12.17,-34.93 4.76,-47.63 -7.4,-12.7 -21.69,-19.05 -42.86,-19.05l-847.77 0c-23.28,0 -41.8,-7.41 -55.56,-22.23 -13.76,-14.82 -20.64,-33.34 -20.64,-54.51l0 -437.11c0,-21.17 6.88,-39.69 20.64,-54.51 13.76,-14.81 32.28,-22.22 55.56,-22.22l1571.71 0c21.16,0 39.16,7.41 53.97,22.22 14.82,14.82 22.23,32.81 22.23,53.98zm301.64 2174.99l0 -2171.81c0,-21.17 7.41,-39.16 22.23,-53.98 14.81,-14.82 32.81,-22.23 53.97,-22.23l866.82 0c332.33,0 604.34,97.37 816.02,292.12 114.3,105.84 201.09,231.78 260.36,377.84 59.27,146.06 88.91,310.11 88.91,492.15 0,182.04 -29.64,346.62 -88.91,493.74 -59.27,147.11 -146.06,273.59 -260.36,379.43 -105.84,95.26 -227.03,167.23 -363.56,215.91 -136.53,48.69 -287.35,73.03 -452.46,73.03l-866.82 0c-21.16,0 -39.16,-7.41 -53.97,-22.23 -14.82,-14.81 -22.23,-32.81 -22.23,-53.97zm704.88 -508.03l238.14 0c59.27,0 120.66,-7.41 184.16,-22.23 63.5,-14.81 120.66,-42.86 171.46,-84.14 50.8,-41.27 92.61,-99.49 125.42,-174.63 32.81,-75.15 49.21,-173.05 49.21,-293.7 0,-120.66 -16.4,-218.56 -49.21,-293.71 -32.81,-75.14 -75.15,-133.35 -127.01,-174.63 -51.86,-41.28 -109.01,-69.32 -171.46,-84.14 -62.44,-14.82 -123.3,-22.23 -182.57,-22.23l-238.14 0c-21.16,0 -39.16,7.41 -53.97,22.23 -14.82,14.82 -22.23,32.81 -22.23,53.98l0 997c0,21.16 7.41,39.16 22.23,53.97 14.81,14.82 32.81,22.23 53.97,22.23zm1971.79 -212.74c114.3,74.09 227.55,132.3 339.74,174.64 112.19,42.33 216.97,63.5 314.34,63.5 93.14,0 164.05,-13.23 212.74,-39.69 48.68,-26.46 73.02,-66.15 73.02,-119.07 0,-27.51 -10.58,-49.21 -31.75,-65.09 -21.17,-15.87 -49.21,-29.1 -84.14,-39.69 -34.93,-10.58 -75.67,-19.05 -122.24,-25.4 -46.57,-6.35 -94.2,-14.82 -142.88,-25.4 -46.57,-8.47 -101.08,-18.52 -163.53,-30.16 -62.44,-11.65 -126.47,-28.58 -192.09,-50.81 -65.62,-22.22 -130.71,-50.27 -195.28,-84.14 -64.56,-33.87 -122.24,-77.26 -173.04,-130.18 -50.8,-52.92 -91.55,-115.89 -122.25,-188.92 -30.69,-73.03 -46.03,-159.29 -46.03,-258.78 0,-146.05 28.57,-266.71 85.72,-361.96 57.16,-95.26 129.66,-170.93 217.5,-227.03 87.85,-56.09 185.75,-95.25 293.71,-117.48 107.95,-22.23 212.73,-33.34 314.34,-33.34 177.8,0 337.09,25.93 477.86,77.79 140.76,51.86 275.71,127.54 404.83,227.03 16.93,14.81 26.46,32.81 28.58,53.97 2.11,21.17 -3.18,40.22 -15.88,57.16l-247.66 352.44c-12.7,16.93 -29.64,27.52 -50.8,31.75 -21.17,4.24 -40.22,0 -57.16,-12.7 -107.95,-67.74 -208.5,-115.89 -301.64,-144.47 -93.14,-28.58 -178.86,-42.86 -257.18,-42.86 -23.29,0 -50.28,0.53 -80.97,1.58 -30.69,1.06 -59.8,5.3 -87.32,12.7 -27.52,7.41 -50.27,19.58 -68.26,36.52 -18,16.93 -26.99,40.22 -26.99,69.85 0,29.64 22.22,56.1 66.68,79.38 44.45,23.29 95.25,43.4 152.4,60.33 57.16,16.93 112.19,30.16 165.11,39.69 52.92,9.52 86.79,15.35 101.61,17.46 76.2,14.82 159.81,36.52 250.83,65.09 91.03,28.58 176.23,70.92 255.6,127.01 79.38,56.09 146.06,129.12 200.04,219.09 53.98,89.96 80.97,202.68 80.97,338.15 0,127.01 -22.23,236.55 -66.68,328.63 -44.45,92.08 -106.37,167.75 -185.75,227.02 -79.38,59.27 -174.63,103.2 -285.76,131.77 -111.13,28.58 -234.44,42.87 -369.91,42.87 -110.07,0 -212.74,-9 -307.99,-26.99 -95.26,-17.99 -184.16,-42.87 -266.71,-74.62 -82.56,-31.75 -159.29,-69.32 -230.2,-112.72 -70.91,-43.39 -136.01,-89.43 -195.28,-138.12 -16.93,-12.7 -26.45,-30.16 -28.57,-52.39 -2.12,-22.22 3.17,-41.8 15.87,-58.74l244.49 -352.44c12.7,-16.93 29.64,-27.52 50.8,-31.75 21.17,-4.23 40.22,-1.06 57.16,9.52zm3965.77 -1451.04l0 2171.81c0,21.16 -7.41,39.16 -22.22,53.97 -14.82,14.82 -32.81,22.23 -53.98,22.23l-476.27 0c-23.29,0 -41.81,-7.41 -55.57,-22.23 -13.76,-14.81 -20.64,-32.81 -20.64,-53.97l0 -679.49c0,-21.17 -7.41,-39.16 -22.22,-53.98 -14.82,-14.81 -32.81,-22.22 -53.45,-22.22l-651.97 0c-22.75,0 -41.28,7.41 -55.04,22.22 -13.75,14.82 -20.63,32.81 -20.63,53.98l0 679.49c0,21.16 -7.41,39.16 -22.23,53.97 -14.82,14.82 -33.34,22.23 -54.51,22.23l-475.21 0c-23.29,0 -42.34,-7.41 -56.1,-22.23 -13.76,-14.81 -20.64,-32.81 -20.64,-53.97l0 -2171.81c0,-21.17 6.88,-39.16 20.64,-53.98 13.76,-14.82 32.81,-22.23 56.1,-22.23l475.21 0c21.17,0 39.69,7.41 54.51,22.23 14.82,14.82 22.23,32.81 22.23,53.98l0 749.33c0,21.17 6.88,39.16 20.63,53.98 13.76,14.82 32.29,22.23 55.04,22.23l651.97 0c20.64,0 38.63,-7.41 53.45,-22.23 14.81,-14.82 22.22,-32.81 22.22,-53.98l0 -749.33c0,-21.17 6.88,-39.16 20.64,-53.98 13.76,-14.82 32.28,-22.23 55.57,-22.23l476.27 0c21.17,0 39.16,7.41 53.98,22.23 14.81,14.82 22.22,32.81 22.22,53.98zm469.93 3.17c0,-21.17 7.41,-39.16 22.22,-53.98 14.82,-14.81 32.29,-22.22 53.45,-22.22l477.34 0c21.16,0 38.63,7.41 53.44,22.22 14.82,14.82 22.23,32.81 22.23,53.98l0 1285.94c0,82.56 13.23,150.82 39.69,204.8 26.99,53.98 59.8,96.31 98.96,127.01 39.16,30.69 81.49,52.39 125.95,65.09 44.45,12.7 85.2,19.05 121.18,19.05 35.99,0 76.74,-6.35 121.19,-19.05 44.45,-12.7 86.26,-34.4 124.36,-65.09 38.1,-30.7 70.38,-73.03 97.37,-127.01 26.46,-53.98 39.69,-122.24 39.69,-204.8l0 -1285.94c0,-21.17 7.41,-39.16 22.23,-53.98 14.81,-14.81 32.28,-22.22 53.44,-22.22l477.34 0c21.16,0 38.63,7.41 53.44,22.22 14.82,14.82 22.23,32.81 22.23,53.98l0 1285.94c0,150.29 -23.81,286.82 -71.44,409.6 -47.63,122.77 -115.36,227.55 -204.27,314.34 -88.9,86.79 -195.8,153.99 -320.16,201.62 -124.89,47.63 -263.01,71.44 -415.42,71.44 -152.41,0 -290.52,-23.81 -415.41,-71.44 -124.36,-47.63 -231.26,-114.83 -320.17,-201.62 -88.9,-86.79 -157.17,-191.57 -205.85,-314.34 -48.69,-122.78 -73.03,-259.31 -73.03,-409.6l0 -1285.94zm4092.78 1047.8c33.87,19.06 67.74,42.34 101.61,69.86 33.87,27.52 65.09,61.38 93.67,101.6 28.57,40.22 51.86,86.79 69.85,139.71 17.99,52.92 26.99,113.25 26.99,180.98 0,137.59 -21.7,251.37 -65.09,341.33 -43.4,89.97 -102.14,161.94 -176.22,215.92 -74.09,53.97 -159.29,92.07 -255.6,114.3 -96.32,22.23 -197.39,33.34 -303.23,33.34l-1006.53 0c-21.17,0 -39.16,-7.41 -53.98,-22.23 -14.81,-14.81 -22.22,-32.81 -22.22,-53.97l0 -2171.81c0,-21.17 7.41,-39.16 22.22,-53.98 14.82,-14.82 32.81,-22.23 53.98,-22.23l958.9 0c101.61,0 198.98,11.12 292.12,33.34 93.13,22.23 175.16,58.74 246.07,109.55 70.91,50.8 128.07,116.95 171.46,198.44 43.39,81.5 65.09,181.52 65.09,300.06 0,95.25 -23.81,177.8 -71.44,247.66 -47.63,69.85 -98.96,124.89 -154,165.11 -38.1,27.51 -35.98,51.86 6.35,73.02zm-885.87 -244.48l295.29 0c42.34,0 76.21,-16.41 101.61,-49.22 25.4,-32.81 38.1,-69.32 38.1,-109.54 0,-38.1 -15.35,-70.91 -46.04,-98.43 -30.69,-27.52 -59.8,-41.28 -87.32,-41.28l-301.64 0c-21.16,0 -39.16,7.41 -53.97,22.23 -14.82,14.82 -22.23,32.81 -22.23,53.98l0 146.05c0,21.17 7.41,39.16 22.23,53.98 14.81,14.82 32.81,22.23 53.97,22.23zm333.4 523.9l-333.4 0c-21.16,0 -39.16,7.41 -53.97,22.22 -14.82,14.82 -22.23,32.81 -22.23,53.98l0 180.99c0,21.16 7.41,39.16 22.23,53.97 14.81,14.82 32.81,22.23 53.97,22.23l355.62 0c38.1,0 74.09,-15.88 107.96,-47.63 33.87,-31.75 50.8,-68.79 50.8,-111.13 0,-38.1 -16.4,-76.73 -49.21,-115.89 -32.81,-39.16 -76.74,-58.74 -131.77,-58.74z"/>
 </g>
</svg>
